<svg id="visual" viewBox="0 0 960 540" width="960" height="540" xmlns="http://www.w3.org/2000/svg"
    xmlns:xlink="http://www.w3.org/1999/xlink" version="1.1">
    <rect x="0" y="0" width="960" height="540" fill="#001220"></rect>
    <path
        d="M0 368L22.8 364.8C45.7 361.7 91.3 355.3 137 352.2C182.7 349 228.3 349 274 352C319.7 355 365.3 361 411.2 358.2C457 355.3 503 343.7 548.8 345.3C594.7 347 640.3 362 686 361C731.7 360 777.3 343 823 338.8C868.7 334.7 914.3 343.3 937.2 347.7L960 352L960 541L937.2 541C914.3 541 868.7 541 823 541C777.3 541 731.7 541 686 541C640.3 541 594.7 541 548.8 541C503 541 457 541 411.2 541C365.3 541 319.7 541 274 541C228.3 541 182.7 541 137 541C91.3 541 45.7 541 22.8 541L0 541Z"
        fill="#fa7268"></path>
    <path
        d="M0 379L22.8 384.2C45.7 389.3 91.3 399.7 137 396C182.7 392.3 228.3 374.7 274 368.2C319.7 361.7 365.3 366.3 411.2 368.7C457 371 503 371 548.8 380.7C594.7 390.3 640.3 409.7 686 412.8C731.7 416 777.3 403 823 393.3C868.7 383.7 914.3 377.3 937.2 374.2L960 371L960 541L937.2 541C914.3 541 868.7 541 823 541C777.3 541 731.7 541 686 541C640.3 541 594.7 541 548.8 541C503 541 457 541 411.2 541C365.3 541 319.7 541 274 541C228.3 541 182.7 541 137 541C91.3 541 45.7 541 22.8 541L0 541Z"
        fill="#ef5f67"></path>
    <path
        d="M0 399L22.8 404C45.7 409 91.3 419 137 421.8C182.7 424.7 228.3 420.3 274 419.2C319.7 418 365.3 420 411.2 422.7C457 425.3 503 428.7 548.8 430.3C594.7 432 640.3 432 686 434.3C731.7 436.7 777.3 441.3 823 444C868.7 446.7 914.3 447.3 937.2 447.7L960 448L960 541L937.2 541C914.3 541 868.7 541 823 541C777.3 541 731.7 541 686 541C640.3 541 594.7 541 548.8 541C503 541 457 541 411.2 541C365.3 541 319.7 541 274 541C228.3 541 182.7 541 137 541C91.3 541 45.7 541 22.8 541L0 541Z"
        fill="#e34c67"></path>
    <path
        d="M0 434L22.8 437.7C45.7 441.3 91.3 448.7 137 454.8C182.7 461 228.3 466 274 464.5C319.7 463 365.3 455 411.2 449.3C457 443.7 503 440.3 548.8 439C594.7 437.7 640.3 438.3 686 438C731.7 437.7 777.3 436.3 823 444.3C868.7 452.3 914.3 469.7 937.2 478.3L960 487L960 541L937.2 541C914.3 541 868.7 541 823 541C777.3 541 731.7 541 686 541C640.3 541 594.7 541 548.8 541C503 541 457 541 411.2 541C365.3 541 319.7 541 274 541C228.3 541 182.7 541 137 541C91.3 541 45.7 541 22.8 541L0 541Z"
        fill="#d53867"></path>
    <path
        d="M0 481L22.8 479.8C45.7 478.7 91.3 476.3 137 478.2C182.7 480 228.3 486 274 490.2C319.7 494.3 365.3 496.7 411.2 498C457 499.3 503 499.7 548.8 498.7C594.7 497.7 640.3 495.3 686 496.5C731.7 497.7 777.3 502.3 823 505.5C868.7 508.7 914.3 510.3 937.2 511.2L960 512L960 541L937.2 541C914.3 541 868.7 541 823 541C777.3 541 731.7 541 686 541C640.3 541 594.7 541 548.8 541C503 541 457 541 411.2 541C365.3 541 319.7 541 274 541C228.3 541 182.7 541 137 541C91.3 541 45.7 541 22.8 541L0 541Z"
        fill="#c62368"></path>
</svg>